# xmcd
#
# Track frame offsets:
#	150
#	12999
#	20922
#	31437
#	48622
#	60684
#	72507
#	80744
#	93262
#	105140
#	120800
#	136252
#	142417
#	156091
#	165704
#	178549
#	188983
#	202429
#	211024
#	220644
#	233021
#
# Disc length: 3274 seconds
#
# Revision: 1
# Processed by: cddbd v1.5.2PL0 Copyright (c) Steve Scherf et al.
# Submitted via: EasyCDDAExtractor 5.0.6
#
DISCID=2d0cc815
DTITLE=Pep Torres - The Many Sides Of Pep Torres
DYEAR=2013
DGENRE=Rock and Roll
TTITLE0=Let's Pretend
TTITLE1=Terremoto Bop
TTITLE2=Luck Is On My Side
TTITLE3=The First Million Tears
TTITLE4=Di Cuando
TTITLE5=Wow Wow
TTITLE6=Bear Out There
TTITLE7=Hep To The Step
TTITLE8=Lorena
TTITLE9=Since I Fell In Love With You
TTITLE10=Noche De Soledad
TTITLE11=Dimelo
TTITLE12=Roll On Driver
TTITLE13=All Reet
TTITLE14=When You Dream
TTITLE15=Live It Up
TTITLE16=Mister Misery
TTITLE17=M Chica Dinamita
TTITLE18=Seventeen
TTITLE19=It Ain't Rocket Science w. Ray Campi
TTITLE20=Stupid Cupid
EXTD=
EXTT0=
EXTT1=
EXTT2=
EXTT3=
EXTT4=
EXTT5=
EXTT6=
EXTT7=
EXTT8=
EXTT9=
EXTT10=
EXTT11=
EXTT12=
EXTT13=
EXTT14=
EXTT15=
EXTT16=
EXTT17=
EXTT18=
EXTT19=
EXTT20=
PLAYORDER=
